<svg fill="none" height="24" viewBox="0 0 24 24" width="24" xmlns="http://www.w3.org/2000/svg"><path stroke-width="1.5" style="stroke:#a9a9a9" clip-rule="evenodd" d="m15 2.5c0-.27614.2239-.5.5-.5h2c.2761 0 .5.22386.5.5s-.2239.5-.5.5h-.5v3h.9193c.2635-.00001.4909-.00002.6782.01528.1977.01616.3943.05181.5835.14821.2822.14381.5117.37328.6555.65552.0964.18919.1321.3858.1482.58348.0153.18728.0153.41466.0153.67823v7.83858c0 .2636 0 .4909-.0153.6782-.0161.1977-.0518.3943-.1482.5835-.1438.2822-.3733.5117-.6555.6555-.1892.0964-.3858.1321-.5835.1482-.1873.0153-.4146.0153-.6782.0153h-.9193v3h.5c.2761 0 .5.2239.5.5s-.2239.5-.5.5h-2c-.2761 0-.5-.2239-.5-.5s.2239-.5.5-.5h.5v-3h-.9193c-.2636 0-.4909 0-.6782-.0153-.1977-.0161-.3943-.0518-.5835-.1482-.2822-.1438-.5117-.3733-.6555-.6555-.0964-.1892-.1321-.3858-.1482-.5835-.0153-.1873-.0153-.4146-.0153-.6782v-7.83858c0-.26357 0-.49095.0153-.67823.0161-.19768.0518-.39429.1482-.58348.1438-.28224.3733-.51171.6555-.65552.1892-.0964.3858-.13205.5835-.14821.1873-.0153.4147-.01529.6782-.01528h.9193v-3h-.5c-.2761 0-.5-.22386-.5-.5zm-9 3c0-.27614.22386-.5.5-.5h2c.27614 0 .5.22386.5.5s-.22386.5-.5.5h-.5v3h.91926c.26358-.00001.49097-.00002.67826.01528.19767.01616.39428.05181.58348.14821.2822.14381.5117.37328.6555.65552.0964.18919.1321.38579.1482.58349.0153.1873.0153.4147.0153.6782v2.8386c0 .2635 0 .4909-.0153.6782-.0161.1977-.0518.3943-.1482.5835-.1438.2822-.3733.5117-.6555.6555-.1892.0964-.38581.1321-.58348.1482-.18729.0153-.41467.0153-.67824.0153h-.91928v5h.5c.27614 0 .5.2239.5.5s-.22386.5-.5.5h-2c-.27614 0-.5-.2239-.5-.5s.22386-.5.5-.5h.5v-5h-.91928c-.26357 0-.49095 0-.67823-.0153-.19768-.0161-.39429-.0518-.58347-.1482-.28225-.1438-.51172-.3733-.65553-.6555-.0964-.1892-.13205-.3858-.1482-.5835-.01531-.1873-.0153-.4147-.01529-.6782v-2.8386c-.00001-.2635-.00002-.4909.01529-.6782.01615-.1977.0518-.3943.1482-.58349.14381-.28224.37328-.51171.65553-.65552.18918-.0964.38579-.13205.58347-.14821.18729-.0153.41467-.01529.67825-.01528h.91926v-3h-.5c-.27614 0-.5-.22386-.5-.5zm8.4839 1.51196c-.1358.0111-.1862.02994-.2109.04254-.0941.04793-.1706.12442-.2185.2185-.0126.02473-.0314.07509-.0425.21092-.0116.14167-.012.3278-.012.61608v7.8c0 .2883.0004.4744.012.6161.0111.1358.0299.1862.0425.2109.0479.0941.1244.1706.2185.2185.0247.0126.0751.0314.2109.0425.1417.0116.3278.012.6161.012h2.8c.2883 0 .4744-.0004.6161-.012.1358-.0111.1862-.0299.2109-.0425.0941-.0479.1706-.1244.2185-.2185.0126-.0247.0314-.0751.0425-.2109.0116-.1417.012-.3278.012-.6161v-7.8c0-.28828-.0004-.47441-.012-.61608-.0111-.13583-.0299-.18619-.0425-.21092-.0479-.09408-.1244-.17057-.2185-.2185-.0247-.0126-.0751-.03144-.2109-.04254-.1417-.01157-.3278-.01196-.6161-.01196h-2.8c-.2883 0-.4744.00039-.6161.01196zm-8.99998 3.00004c-.13583.0111-.18619.0299-.21091.0425-.09409.0479-.17058.1244-.21851.2185-.0126.0247-.03144.0751-.04254.2109-.01157.1417-.01196.3278-.01196.6161v2.8c0 .2883.00039.4744.01196.6161.0111.1358.02994.1862.04254.2109.04793.0941.12442.1706.21851.2185.02472.0126.07508.0314.21091.0425.14167.0116.3278.012.61608.012h2.8c.28828 0 .47441-.0004.61608-.012.13583-.0111.18619-.0299.21092-.0425.09408-.0479.17057-.1244.2185-.2185.0126-.0247.03144-.0751.04254-.2109.01157-.1417.01196-.3278.01196-.6161v-2.8c0-.2883-.00039-.4744-.01196-.6161-.0111-.1358-.02994-.1862-.04254-.2109-.04793-.0941-.12442-.1706-.2185-.2185-.02473-.0126-.07509-.0314-.21092-.0425-.14167-.0116-.3278-.012-.61608-.012h-2.8c-.28828 0-.47441.0004-.61608.012z" fill="#000" fill-rule="evenodd"/></svg>
