<?xml version="1.0" ?><svg id="Layer_1_1_" style="enable-background:new 0 0 64 64;" version="1.1" viewBox="0 0 64 64" xml:space="preserve" xmlns="http://www.w3.org/2000/svg" xmlns:xlink="http://www.w3.org/1999/xlink"><g><text style="fill:#FFFFFF" transform="matrix(1 0 0 1 -182.3999 -21)"><tspan style="fill:#FFFFFF; font-family:'Montserrat-Regular'; font-size:10px;" x="0" y="0"/><tspan style="font-family:'Montserrat-Regular'; font-size:10px;" x="6.16" y="0"/><tspan style="font-family:'Montserrat-Regular'; font-size:10px;" x="13.11" y="0"/><tspan style="font-family:'Montserrat-Regular'; font-size:10px;" x="19.7" y="0"/><tspan style="font-family:'Montserrat-Regular'; font-size:10px;" x="9.585" y="12"/><tspan style="font-family:'Montserrat-Regular'; font-size:10px;" x="21.535" y="12"/><tspan style="font-family:'Montserrat-Regular'; font-size:10px;" x="29.545" y="12"/></text><text transform="matrix(1 0 0 1 -92.6147 -21)"><tspan style="font-family:'Montserrat-Regular'; font-size:10px;" x="0" y="0"/><tspan style="font-family:'Montserrat-Regular'; font-size:10px;" x="-1.04" y="12"/></text><text transform="matrix(1 0 0 1 -74.8047 75)"><tspan style="font-family:'Montserrat-Regular'; font-size:10px;" x="0" y="0"/><tspan style="font-family:'Montserrat-Regular'; font-size:10px;" x="-10.595" y="12"/></text><text transform="matrix(1 0 0 1 23.8999 -21)"><tspan style="font-family:'Montserrat-Regular'; font-size:10px;" x="0" y="0"/><tspan style="font-family:'Montserrat-Regular'; font-size:10px;" x="-9.44" y="12"/></text><text transform="matrix(1 0 0 1 104.665 -21)"><tspan style="font-family:'Montserrat-Regular'; font-size:10px;" x="0" y="0"/><tspan style="font-family:'Montserrat-Regular'; font-size:10px;" x="6.16" y="0"/><tspan style="font-family:'Montserrat-Regular'; font-size:10px;" x="11.16" y="0"/><tspan style="font-family:'Montserrat-Regular'; font-size:10px;" x="18.25" y="0"/><tspan style="font-family:'Montserrat-Regular'; font-size:10px;" x="-6.32" y="12"/></text><text transform="matrix(1 0 0 1 191.8101 -21)"><tspan style="font-family:'Montserrat-Regular'; font-size:10px;" x="0" y="0"/><tspan style="font-family:'Montserrat-Regular'; font-size:10px;" x="6.83" y="0"/><tspan style="font-family:'Montserrat-Regular'; font-size:10px;" x="-5.645" y="12"/><tspan style="font-family:'Montserrat-Regular'; font-size:10px;" x="0.516" y="12"/><tspan style="font-family:'Montserrat-Regular'; font-size:10px;" x="7.465" y="12"/><tspan style="font-family:'Montserrat-Regular'; font-size:10px;" x="14.056" y="12"/><tspan style="font-family:'Montserrat-Regular'; font-size:10px;" x="53.725" y="12"/><tspan style="font-family:'Montserrat-Regular'; font-size:10px;" x="61.735" y="12"/></text><text transform="matrix(1 0 0 1 294.96 -21)"><tspan style="font-family:'Montserrat-Regular'; font-size:10px;" x="0" y="0"/><tspan style="font-family:'Montserrat-Regular'; font-size:10px;" x="14.46" y="0"/><tspan style="font-family:'Montserrat-Regular'; font-size:10px;" x="21.05" y="0"/></text><text transform="matrix(1 0 0 1 -198.3247 75)"><tspan style="font-family:'Montserrat-Regular'; font-size:10px;" x="0" y="0"/><tspan style="font-family:'Montserrat-Regular'; font-size:10px;" x="37.36" y="0"/><tspan style="font-family:'Montserrat-Regular'; font-size:10px;" x="45.26" y="0"/></text><text transform="matrix(1 0 0 1 20.9951 75)"><tspan style="font-family:'Montserrat-Regular'; font-size:10px;" x="0" y="0"/><tspan style="font-family:'Montserrat-Regular'; font-size:10px;" x="-1.81" y="12"/><tspan style="font-family:'Montserrat-Regular'; font-size:10px;" x="10.14" y="12"/><tspan style="font-family:'Montserrat-Regular'; font-size:10px;" x="18.15" y="12"/></text><text transform="matrix(1 0 0 1 105.4102 75)"><tspan style="font-family:'Montserrat-Regular'; font-size:10px;" x="0" y="0"/><tspan style="font-family:'Montserrat-Regular'; font-size:10px;" x="-13.53" y="12"/></text><text transform="matrix(1 0 0 1 185.6206 75)"><tspan style="font-family:'Montserrat-Regular'; font-size:10px;" x="0" y="0"/><tspan style="font-family:'Montserrat-Regular'; font-size:10px;" x="6.95" y="0"/></text><text transform="matrix(1 0 0 1 308.665 75)"><tspan style="font-family:'Montserrat-Regular'; font-size:10px;" x="0" y="0"/><tspan style="font-family:'Montserrat-Regular'; font-size:10px;" x="-6.985" y="12"/></text><text transform="matrix(1 0 0 1 -196.8198 171)"><tspan style="font-family:'Montserrat-Regular'; font-size:10px;" x="0" y="0"/><tspan style="font-family:'Montserrat-Regular'; font-size:10px;" x="6.83" y="0"/><tspan style="font-family:'Montserrat-Regular'; font-size:10px;" x="42.36" y="0"/><tspan style="font-family:'Montserrat-Regular'; font-size:10px;" x="48.95" y="0"/><tspan style="font-family:'Montserrat-Regular'; font-size:10px;" x="19.28" y="12"/></text><text style="font-family:'Montserrat-Regular'; font-size:10px;" transform="matrix(1 0 0 1 -87.8398 171)"/><text transform="matrix(1 0 0 1 1.4502 171)"><tspan style="font-family:'Montserrat-Regular'; font-size:10px;" x="0" y="0"/><tspan style="font-family:'Montserrat-Regular'; font-size:10px;" x="22.46" y="0"/><tspan style="font-family:'Montserrat-Regular'; font-size:10px;" x="29.41" y="0"/><tspan style="font-family:'Montserrat-Regular'; font-size:10px;" x="36" y="0"/><tspan style="font-family:'Montserrat-Regular'; font-size:10px;" x="17.735" y="12"/><tspan style="font-family:'Montserrat-Regular'; font-size:10px;" x="29.685" y="12"/><tspan style="font-family:'Montserrat-Regular'; font-size:10px;" x="37.695" y="12"/></text><text transform="matrix(1 0 0 1 101.5601 171)"><tspan style="font-family:'Montserrat-Regular'; font-size:10px;" x="0" y="0"/><tspan style="font-family:'Montserrat-Regular'; font-size:10px;" x="20.14" y="0"/><tspan style="font-family:'Montserrat-Regular'; font-size:10px;" x="30.46" y="0"/></text><text transform="matrix(1 0 0 1 205.6802 171)"><tspan style="font-family:'Montserrat-Regular'; font-size:10px;" x="0" y="0"/><tspan style="font-family:'Montserrat-Regular'; font-size:10px;" x="14.49" y="0"/><tspan style="font-family:'Montserrat-Regular'; font-size:10px;" x="22.15" y="0"/><tspan style="font-family:'Montserrat-Regular'; font-size:10px;" x="0.78" y="12"/></text><text transform="matrix(1 0 0 1 302.4751 171)"><tspan style="font-family:'Montserrat-Regular'; font-size:10px;" x="0" y="0"/><tspan style="font-family:'Montserrat-Regular'; font-size:10px;" x="14.61" y="0"/><tspan style="font-family:'Montserrat-Regular'; font-size:10px;" x="21.76" y="0"/></text><text transform="matrix(1 0 0 1 -190.0098 267)"><tspan style="font-family:'Montserrat-Regular'; font-size:10px;" x="0" y="0"/><tspan style="font-family:'Montserrat-Regular'; font-size:10px;" x="7.61" y="0"/></text><text transform="matrix(1 0 0 1 -91.7598 267)"><tspan style="font-family:'Montserrat-Regular'; font-size:10px;" x="0" y="0"/><tspan style="font-family:'Montserrat-Regular'; font-size:10px;" x="10.22" y="12"/></text><text transform="matrix(1 0 0 1 1.2153 267)"><tspan style="font-family:'Montserrat-Regular'; font-size:10px;" x="0" y="0"/><tspan style="font-family:'Montserrat-Regular'; font-size:10px;" x="17.05" y="0"/><tspan style="font-family:'Montserrat-Regular'; font-size:10px;" x="22.28" y="0"/><tspan style="font-family:'Montserrat-Regular'; font-size:10px;" x="30.18" y="0"/></text><text transform="matrix(1 0 0 1 102.0854 267)"><tspan style="font-family:'Montserrat-Regular'; font-size:10px;" x="0" y="0"/><tspan style="font-family:'Montserrat-Regular'; font-size:10px;" x="8.375" y="12"/></text><text transform="matrix(1 0 0 1 206.0303 267)"><tspan style="font-family:'Montserrat-Regular'; font-size:10px;" x="0" y="0"/><tspan style="font-family:'Montserrat-Regular'; font-size:10px;" x="-9.745" y="12"/><tspan style="font-family:'Montserrat-Regular'; font-size:10px;" x="1.045" y="12"/><tspan style="font-family:'Montserrat-Regular'; font-size:10px;" x="8.135" y="12"/></text><text style="font-family:'Montserrat-Regular'; font-size:10px;" transform="matrix(1 0 0 1 296.3901 267)"/><text transform="matrix(1 0 0 1 -186.2197 363)"><tspan style="font-family:'Montserrat-Regular'; font-size:10px;" x="0" y="0"/><tspan style="font-family:'Montserrat-Regular'; font-size:10px;" x="0.275" y="12"/><tspan style="font-family:'Montserrat-Regular'; font-size:10px;" x="11.064" y="12"/><tspan style="font-family:'Montserrat-Regular'; font-size:10px;" x="18.155" y="12"/></text><text transform="matrix(1 0 0 1 -83.3647 363)"><tspan style="font-family:'Montserrat-Regular'; font-size:10px;" x="0" y="0"/><tspan style="font-family:'Montserrat-Regular'; font-size:10px;" x="25.28" y="0"/><tspan style="font-family:'Montserrat-Regular'; font-size:10px;" x="32.43" y="0"/><tspan style="font-family:'Montserrat-Regular'; font-size:10px;" x="6.385" y="12"/></text><text transform="matrix(1 0 0 1 17.415 363)"><tspan style="font-family:'Montserrat-Regular'; font-size:10px;" x="0" y="0"/><tspan style="font-family:'Montserrat-Regular'; font-size:10px;" x="-10.05" y="12"/><tspan style="font-family:'Montserrat-Regular'; font-size:10px;" x="0.74" y="12"/><tspan style="font-family:'Montserrat-Regular'; font-size:10px;" x="7.83" y="12"/></text><text style="font-family:'Montserrat-Regular'; font-size:10px;" transform="matrix(1 0 0 1 116.3203 363)"/><text transform="matrix(1 0 0 1 209.2949 363)"><tspan style="font-family:'Montserrat-Regular'; font-size:10px;" x="0" y="0"/><tspan style="font-family:'Montserrat-Regular'; font-size:10px;" x="-9.93" y="12"/><tspan style="font-family:'Montserrat-Regular'; font-size:10px;" x="0.86" y="12"/><tspan style="font-family:'Montserrat-Regular'; font-size:10px;" x="7.95" y="12"/></text><text transform="matrix(1 0 0 1 305.8599 363)"><tspan style="font-family:'Montserrat-Regular'; font-size:10px;" x="0" y="0"/><tspan style="font-family:'Montserrat-Regular'; font-size:10px;" x="-3.4" y="12"/></text><text transform="matrix(1 0 0 1 -174.6499 459)"><tspan style="font-family:'Montserrat-Regular'; font-size:10px;" x="0" y="0"/><tspan style="font-family:'Montserrat-Regular'; font-size:10px;" x="-3.53" y="12"/></text><text style="font-family:'Montserrat-Regular'; font-size:10px;" transform="matrix(1 0 0 1 -94.7798 459)"/><text style="font-family:'Montserrat-Regular'; font-size:10px;" transform="matrix(1 0 0 1 13.8154 459)"/><text transform="matrix(1 0 0 1 112.0151 459)"><tspan style="font-family:'Montserrat-Regular'; font-size:10px;" x="0" y="0"/><tspan style="font-family:'Montserrat-Regular'; font-size:10px;" x="-5.31" y="12"/><tspan style="font-family:'Montserrat-Regular'; font-size:10px;" x="4.08" y="12"/><tspan style="font-family:'Montserrat-Regular'; font-size:10px;" x="12.11" y="12"/></text><text transform="matrix(1 0 0 1 205.8203 459)"><tspan style="font-family:'Montserrat-Regular'; font-size:10px;" x="0" y="0"/><tspan style="font-family:'Montserrat-Regular'; font-size:10px;" x="-7.33" y="12"/></text><text transform="matrix(1 0 0 1 301.8203 459)"><tspan style="font-family:'Montserrat-Regular'; font-size:10px;" x="0" y="0"/><tspan style="font-family:'Montserrat-Regular'; font-size:10px;" x="-12.81" y="12"/></text></g><g/><path style="stroke:#FFFFFF; fill:#FFFFFF" d="M4,16v24c0,0.552,0.448,1,1,1h12c0.552,0,1-0.448,1-1V16c0-0.552-0.448-1-1-1H5C4.448,15,4,15.448,4,16z M6,39V28h10v11H6z   M16,17v9H6v-9H16z"/><path style="stroke:#FFFFFF; fill:#FFFFFF" d="M25,30v12c0,0.552,0.448,1,1,1h12c0.552,0,1-0.448,1-1V30c0-0.552-0.448-1-1-1H26C25.448,29,25,29.448,25,30z M27,41v-4h10  v4H27z M37,31v4H27v-4H37z"/><path style="stroke:#FFFFFF; fill:#FFFFFF" d="M46,19v24c0,0.552,0.448,1,1,1h12c0.552,0,1-0.448,1-1V19c0-0.552-0.448-1-1-1H47C46.448,18,46,18.448,46,19z M48,42V27h10  v15H48z M58,20v5H48v-5H58z"/><rect style="stroke:#FFFFFF; fill:#FFFFFF" height="2" width="2" x="10" y="11"/><rect style="stroke:#FFFFFF; fill:#FFFFFF" height="2" width="2" x="10" y="7"/><polygon style="stroke:#FFFFFF; fill:#FFFFFF" points="12,4 17,4 17,2 5,2 5,4 10,4 10,5 12,5 "/><rect style="stroke:#FFFFFF; fill:#FFFFFF" height="2" width="2" x="31" y="21"/><rect style="stroke:#FFFFFF; fill:#FFFFFF" height="2" width="2" x="31" y="17"/><polygon style="stroke:#FFFFFF; fill:#FFFFFF" points="33,14 38,14 38,12 26,12 26,14 31,14 31,15 33,15 "/><rect style="stroke:#FFFFFF; fill:#FFFFFF" height="2" width="2" x="31" y="25"/><rect style="stroke:#FFFFFF; fill:#FFFFFF" height="2" width="2" x="10" y="47"/><rect style="stroke:#FFFFFF; fill:#FFFFFF" height="2" width="2" x="10" y="51"/><polygon style="stroke:#FFFFFF; fill:#FFFFFF" points="10,56 5,56 5,58 17,58 17,56 12,56 12,55 10,55 "/><rect style="stroke:#FFFFFF; fill:#FFFFFF" height="2" width="2" x="10" y="43"/><rect style="stroke:#FFFFFF; fill:#FFFFFF" height="2" width="2" x="31" y="45"/><polygon style="stroke:#FFFFFF; fill:#FFFFFF" points="31,50 26,50 26,52 38,52 38,50 33,50 33,49 31,49 "/><rect style="stroke:#FFFFFF; fill:#FFFFFF" height="2" width="2" x="52" y="14"/><rect style="stroke:#FFFFFF; fill:#FFFFFF" height="2" width="2" x="52" y="10"/><polygon style="stroke:#FFFFFF; fill:#FFFFFF" points="54,7 59,7 59,5 47,5 47,7 52,7 52,8 54,8 "/><rect style="stroke:#FFFFFF; fill:#FFFFFF" height="2" width="2" x="52" y="50"/><rect style="stroke:#FFFFFF; fill:#FFFFFF" height="2" width="2" x="52" y="54"/><polygon style="stroke:#FFFFFF; fill:#FFFFFF" points="52,59 47,59 47,61 59,61 59,59 54,59 54,58 52,58 "/><rect style="stroke:#FFFFFF; fill:#FFFFFF" height="2" width="2" x="52" y="46"/></svg>
