<?xml version="1.0" ?><svg viewBox="0 0 32 32" xmlns="http://www.w3.org/2000/svg"><title/><g data-name="01" id="_01"><path style="stroke:#a9a9a9;fill:#a9a9a9;" d="M18,6a1,1,0,0,1-1-1V3a1,1,0,0,1,2,0V5A1,1,0,0,1,18,6Z"/><path style="stroke:#a9a9a9;fill:#a9a9a9;" d="M27,11a1,1,0,0,1-1-1V5a1,1,0,0,1,2,0v5A1,1,0,0,1,27,11Z"/><path stroke-width="0" style="stroke:#a9a9a9;fill:#a9a9a9;" d="M29,28H4V3A1,1,0,0,0,2,3V29a1,1,0,0,0,1,1H29a1,1,0,0,0,0-2Z"/><path style="stroke:#a9a9a9;fill:#a9a9a9;" d="M7,24H8v1a1,1,0,0,0,2,0V24h1a1,1,0,0,0,1-1V17a1,1,0,0,0-1-1H10V9A1,1,0,0,0,8,9v7H7a1,1,0,0,0-1,1v6A1,1,0,0,0,7,24Z"/><path style="stroke:#a9a9a9;fill:#a9a9a9;" d="M16,19h1v5a1,1,0,0,0,2,0V19h1a1,1,0,0,0,1-1V6a1,1,0,0,0-1-1H16a1,1,0,0,0-1,1V18A1,1,0,0,0,16,19Z"/><path style="stroke:#a9a9a9;fill:#a9a9a9;" d="M29,9H25a1,1,0,0,0-1,1V20a1,1,0,0,0,1,1h1v1a1,1,0,0,0,2,0V21h1a1,1,0,0,0,1-1V10A1,1,0,0,0,29,9Z"/></g></svg>
