<?xml version="1.0" ?><!DOCTYPE svg  PUBLIC '-//W3C//DTD SVG 1.1//EN'  'http://www.w3.org/Graphics/SVG/1.1/DTD/svg11.dtd'><svg enable-background="new -5.916 -5.949 100 100" height="100px" version="1.1" viewBox="-5.916 -5.949 100 100" width="100px" xml:space="preserve" xmlns="http://www.w3.org/2000/svg" xmlns:xlink="http://www.w3.org/1999/xlink"><defs/><path style="fill:#a9a9a9" d="M67.032,31.671l15.186-9.7C74.783,9.189,61.111,0.463,45.396,0v18C54.747,18.466,62.813,23.881,67.032,31.671z"/><path style="fill:#a9a9a9" d="M29.811,65.867C22.705,61.202,18,53.168,18,44.051C18,30.108,28.996,18.686,42.771,18V0C19.069,0.698,0,20.183,0,44.051  c0,16.155,8.741,30.3,21.736,37.977L29.811,65.867z"/><path style="fill:#a9a9a9" d="M83.469,24.288l-15.295,9.769c1.283,3.08,1.994,6.455,1.994,9.994c0,14.383-11.701,26.084-26.084,26.084  c-4.327,0-8.407-1.065-12.003-2.938l-8.043,16.096c6.019,3.088,12.83,4.842,20.046,4.842c24.308,0,44.084-19.776,44.084-44.084  C88.168,36.946,86.468,30.236,83.469,24.288z"/></svg>
