<?xml version="1.0" ?><svg id="Слой_2" style="enable-background:new 0 0 512 512;" version="1.1" viewBox="0 0 512 512" xml:space="preserve" xmlns="http://www.w3.org/2000/svg" xmlns:xlink="http://www.w3.org/1999/xlink"><style type="text/css">
	.st0{fill:#909090;stroke:#9BAEC8;stroke-width:10;stroke-miterlimit:10;}
	.st1{fill:#000000;stroke:#9BAEC8;stroke-width:10;stroke-miterlimit:10;}
	.st2{fill:#D9E1E8;stroke:#9BAEC8;stroke-width:10;stroke-miterlimit:10;}
</style><rect class="st0" height="85.4" width="85.4" x="42.5" y="42.5"/><rect class="st1" height="85.4" width="85.4" x="127.9" y="42.5"/><rect class="st1" height="85.4" width="85.4" x="213.3" y="42.5"/><rect class="st1" height="85.4" width="85.4" x="298.7" y="42.5"/><rect class="st1" height="85.4" width="85.4" x="384.1" y="42.5"/><rect class="st0" height="85.4" width="85.4" x="42.5" y="127.9"/><rect class="st0" height="85.4" width="85.4" x="127.9" y="127.9"/><rect class="st0" height="85.4" width="85.4" x="213.3" y="127.9"/><rect class="st1" height="85.4" width="85.4" x="298.7" y="127.9"/><rect class="st1" height="85.4" width="85.4" x="384.1" y="127.9"/><rect class="st2" height="85.4" width="85.4" x="42.5" y="213.3"/><rect class="st0" height="85.4" width="85.4" x="127.9" y="213.3"/><rect class="st0" height="85.4" width="85.4" x="213.3" y="213.3"/><rect class="st0" height="85.4" width="85.4" x="298.7" y="213.3"/><rect class="st1" height="85.4" width="85.4" x="384.1" y="213.3"/><rect class="st2" height="85.4" width="85.4" x="42.5" y="298.7"/><rect class="st2" height="85.4" width="85.4" x="127.9" y="298.7"/><rect class="st0" height="85.4" width="85.4" x="213.3" y="298.7"/><rect class="st0" height="85.4" width="85.4" x="298.7" y="298.7"/><rect class="st0" height="85.4" width="85.4" x="384.1" y="298.7"/><rect class="st2" height="85.4" width="85.4" x="42.5" y="384.1"/><rect class="st2" height="85.4" width="85.4" x="127.9" y="384.1"/><rect class="st2" height="85.4" width="85.4" x="213.3" y="384.1"/><rect class="st2" height="85.4" width="85.4" x="298.7" y="384.1"/><rect class="st2" height="85.4" width="85.4" x="384.1" y="384.1"/></svg>