<?xml version="1.0" ?><svg id="icon" viewBox="0 0 32 32" xmlns="http://www.w3.org/2000/svg"><defs><style>.cls-1{fill:none;}</style></defs><title/><path style="stroke:#a9a9a9;fill:#a9a9a9;" d="M4.67,28l6.39-12,7.3,6.49a2,2,0,0,0,1.7.47,2,2,0,0,0,1.42-1.07L27,10.9,25.18,10,19.69,21l-7.3-6.49A2,2,0,0,0,10.71,14a2,2,0,0,0-1.42,1L4,25V2H2V28a2,2,0,0,0,2,2H30V28Z" transform="translate(0 0)"/><rect class="cls-1" data-name="&lt;Transparent Rectangle&gt;" height="32" id="_Transparent_Rectangle_" width="32"/></svg>
