<?xml version="1.0" ?><!DOCTYPE svg  PUBLIC '-//W3C//DTD SVG 1.1//EN'  'http://www.w3.org/Graphics/SVG/1.1/DTD/svg11.dtd'><svg enable-background="new -9.209 -11.162 100 100" height="100px" version="1.1" viewBox="-9.209 -11.162 100 100" width="100px" xml:space="preserve" xmlns="http://www.w3.org/2000/svg" xmlns:xlink="http://www.w3.org/1999/xlink"><defs/><path style="fill:#a9a9a9" d="M66,77.588h-50.42L0,29.637L40.791,0l40.79,29.637L66,77.588z M16.125,76.838h49.33L80.7,29.923L40.791,0.927L0.882,29.923  L16.125,76.838z"/><path style="fill:#a9a9a9" d="M61.473,71.928H20.108L7.325,32.587L40.791,8.273l33.465,24.313L61.473,71.928z M20.653,71.178h40.275l12.446-38.305  L40.791,9.2L8.207,32.873L20.653,71.178z"/><path style="fill:#a9a9a9" d="M56.663,65.831H24.918l-9.809-30.189l25.681-18.659l25.681,18.659L56.663,65.831z M25.463,65.081h30.654l9.473-29.153  l-24.8-18.019L15.991,35.928L25.463,65.081z"/><path style="fill:#a9a9a9" d="M52.479,60.7H29.103L21.88,38.468l18.911-13.74l18.911,13.74L52.479,60.7z M29.648,59.95h22.286l6.887-21.196l-18.03-13.1  l-18.029,13.1L29.648,59.95z"/><path style="fill:#a9a9a9" d="M52.479,60.7H29.103L21.88,38.468l18.911-13.74l18.911,13.74L52.479,60.7z M29.648,59.95h22.286l6.887-21.196l-18.03-13.1  l-18.029,13.1L29.648,59.95z"/><path style="fill:#a9a9a9" d="M48.178,55.387H33.402l-4.565-14.052l11.954-8.684l11.953,8.684L48.178,55.387z M33.947,54.637h13.687l4.229-13.015  l-11.072-8.044l-11.072,8.044L33.947,54.637z"/><rect style="fill:#a9a9a9" height="0.5" transform="matrix(0.9278 0.3731 -0.3731 0.9278 15.6264 -4.9555)" width="43.49" x="-1.129" y="37.643"/><rect style="fill:#a9a9a9" height="39.948" transform="matrix(0.7809 0.6247 -0.6247 0.7809 44.6933 -4.1919)" width="0.5" x="28.072" y="41.636"/><rect style="fill:#a9a9a9" height="0.5" transform="matrix(0.6243 0.7812 -0.7812 0.6243 68.1426 -18.4578)" width="39.948" x="33.285" y="61.359"/><rect style="fill:#a9a9a9" height="43.489" transform="matrix(0.3724 0.9281 -0.9281 0.3724 73.429 -32.7985)" width="0.501" x="60.715" y="16.148"/><rect style="fill:#a9a9a9" height="45.542" width="0.5" x="40.541" y="0.463"/><path style="fill:#a9a9a9" d="M82.203,29.988c0-0.806-0.653-1.459-1.459-1.459c-0.327,0-0.626,0.112-0.869,0.294L41.838,24.5  c-0.268-0.339-0.677-0.561-1.142-0.561c-0.625,0-1.155,0.397-1.362,0.951L16.242,34.71c-0.179-0.079-0.376-0.124-0.585-0.124  c-0.805,0-1.458,0.654-1.458,1.459c0,0.615,0.38,1.138,0.917,1.353l4.333,33.054c-0.228,0.258-0.371,0.592-0.371,0.963  c0,0.806,0.653,1.459,1.458,1.459c0.506,0,0.952-0.259,1.214-0.65l33.605-5.716c0.243,0.184,0.543,0.296,0.871,0.296  c0.754,0,1.367-0.574,1.443-1.308l23.211-34.063C81.622,31.362,82.203,30.747,82.203,29.988z M56.34,63.897  c-0.038-0.003-0.074-0.012-0.113-0.012c-0.506,0-0.951,0.259-1.213,0.65L21.44,70.247l-4.417-33.695l23.09-9.819  c0.179,0.079,0.375,0.124,0.583,0.124c0.368,0,0.7-0.14,0.957-0.365l37.287,4.238L56.34,63.897z"/></svg>
