<?xml version="1.0" ?><!DOCTYPE svg  PUBLIC '-//W3C//DTD SVG 1.1//EN'  'http://www.w3.org/Graphics/SVG/1.1/DTD/svg11.dtd'><svg enable-background="new -5 -15 100 100" height="100px" version="1.1" viewBox="-5 -15 100 100" width="100px" xml:space="preserve" xmlns="http://www.w3.org/2000/svg" xmlns:xlink="http://www.w3.org/1999/xlink"><defs/><polygon style="fill:#00C9FF"  points="5,75 5,0 0,0 0,80 0.016,80 5,80 89.984,80 89.984,75 "/><circle style="fill:#00C9FF" cx="25.25" cy="14.75" r="5"/><circle style="fill:#00C9FF" cx="34.375" cy="28.625" r="2.875"/><path style="fill:#00C9FF" d="M73.607,20.866c0-3.723-3.018-6.741-6.741-6.741c-3.723,0-6.741,3.018-6.741,6.741c0,0.894,0.178,1.745,0.494,2.525  c-5.195,0.545-9.244,4.937-9.244,10.275C51.375,39.374,56.001,44,61.708,44s10.333-4.626,10.333-10.333  c0-2.533-0.915-4.851-2.428-6.648C71.966,25.966,73.607,23.61,73.607,20.866z"/><circle style="fill:#00C9FF" cx="45" cy="65.5" r="4.875"/><circle style="fill:#00C9FF" cx="83.272" cy="61.522" r="6.147"/><circle style="fill:#00C9FF" cx="65.875" cy="50.25" r="2.5"/><path style="fill:#00C9FF" d="M20.792,43.292c-0.324,0-0.641,0.03-0.953,0.073c0.015-0.121,0.037-0.24,0.037-0.365c0-1.657-1.343-3-3-3s-3,1.343-3,3  c0,1.186,0.693,2.199,1.69,2.688c-1.05,1.213-1.69,2.79-1.69,4.521c0,3.82,3.097,6.917,6.917,6.917s6.917-3.097,6.917-6.917  C27.708,46.389,24.611,43.292,20.792,43.292z"/></svg>
