<?xml version="1.0" ?><!DOCTYPE svg  PUBLIC '-//W3C//DTD SVG 1.1//EN'  'http://www.w3.org/Graphics/SVG/1.1/DTD/svg11.dtd'><svg enable-background="new 4.124 -14.938 100 100" height="100px" version="1.1" viewBox="4.124 -14.938 100 100" width="100px" xml:space="preserve" xmlns="http://www.w3.org/2000/svg" xmlns:xlink="http://www.w3.org/1999/xlink"><defs/><polygon style="fill:#00C9FF" points="14.132,75 14.132,0 9.132,0 9.132,80 9.147,80 14.132,80 99.116,80 99.116,75 "/><rect style="fill:#00C9FF" height="64.966" width="4.958" y="81.246"/><path style="fill:#00C9FF" d="M22.791,25.696h-2v-3.469h-2.021v-9.125h2.021V9.634h2v3.469h2.021v9.125h-2.021V25.696z M21.791,21.228h2.021v-7.125  h-4.041v7.125H21.791z"/><path style="fill:#00C9FF" d="M32.791,34.321h-2v-4.375h-2.021V17.009h2.021v-4.375h2v4.375h2.021v12.938h-2.021V34.321z M31.791,28.946h2.021V18.009  h-4.041v10.938H31.791z"/><path style="fill:#00C9FF" d="M42.791,48.991h-2v-9.378h-2.021v-7.935h2.021v-4.375h2v4.375h2.021v7.935h-2.021V48.991z M41.791,38.613h2.021v-5.935  h-4.041v5.935H41.791z"/><path style="fill:#00C9FF" d="M52.791,44.946h-2v-3.299h-2.021V31.196h2.021v-7.938h2v7.938h2.021v10.451h-2.021V44.946z M51.791,40.647h2.021v-8.451  h-4.041v8.451H51.791z"/><path style="fill:#00C9FF" d="M62.792,34.665h-2v-3.886h-2.021V14.916h2.021v-1.938h2v1.938h2.02v15.864h-2.02V34.665z M61.792,29.779h2.02V15.916h-4.041  v13.864H61.792z"/><path style="fill:#00C9FF" d="M72.792,34.603h-2v-3.823h-2.021v-7h2.021v-4.864h2v4.864h2.02v7h-2.02V34.603z M71.792,29.779h2.02v-5h-4.041v5H71.792z"/><path style="fill:#00C9FF" d="M82.792,42.123h-2v-3.885h-2.021V22.374h2.021v-1.938h2v1.938h2.02v15.864h-2.02V42.123z M81.792,37.238h2.02V23.374h-4.041  v13.864H81.792z"/><path style="fill:#00C9FF" d="M92.793,55.594h-2v-8.152h-2.021v-9.473h2.021v-2.391h2v2.391h2.02v9.473h-2.02V55.594z M91.793,46.441h2.02v-7.473h-4.041  v7.473H91.793z"/></svg>
