<?xml version="1.0" ?><!DOCTYPE svg  PUBLIC '-//W3C//DTD SVG 1.1//EN'  'http://www.w3.org/Graphics/SVG/1.1/DTD/svg11.dtd'><svg enable-background="new 0 0 110 110" height="110px" id="Layer_1" version="1.1" viewBox="0 0 110 110" width="110px" xml:space="preserve" xmlns="http://www.w3.org/2000/svg" xmlns:xlink="http://www.w3.org/1999/xlink"><path style="fill:#1A76C7" d="M105.452,20.446H5.08c-0.829,0-1.5,0.671-1.5,1.5v66.107c0,0.828,0.671,1.5,1.5,1.5h100.372c0.828,0,1.5-0.672,1.5-1.5  V21.946C106.952,21.118,106.28,20.446,105.452,20.446z M40.038,70.027V56.5h30.458v13.527H40.038z M70.495,39.973V53.5H40.038  V39.973H70.495z M37.038,39.973V53.5H6.58V39.973H37.038z M37.038,56.5v13.527H6.58V56.5H37.038z M40.038,73.027h30.458v13.526  H40.038V73.027z M73.495,70.027V56.5h30.457v13.527H73.495z M73.495,53.5V39.973h30.457V53.5H73.495z M6.58,73.027h30.458v13.526  H6.58V73.027z M73.495,86.554V73.027h30.457v13.526H73.495z"/></svg>