<?xml version="1.0" ?><!DOCTYPE svg  PUBLIC '-//W3C//DTD SVG 1.1//EN'  'http://www.w3.org/Graphics/SVG/1.1/DTD/svg11.dtd'><svg enable-background="new -5 -15 100 100" height="100px" version="1.1" viewBox="-5 -15 100 100" width="100px" xml:space="preserve" xmlns="http://www.w3.org/2000/svg" xmlns:xlink="http://www.w3.org/1999/xlink"><defs/><polygon style="fill:#1A76C7" points="5,75 5,0 0,0 0,80 0.016,80 5,80 89.984,80 89.984,75 "/><rect style="fill:#1A76C7" height="5" transform="matrix(0.7072 0.7071 -0.7071 0.7072 20.0089 -8.2972)" width="5" x="17.521" y="17.507"/><rect style="fill:#1A76C7" height="5" transform="matrix(0.7072 0.7071 -0.7071 0.7072 22.3025 -23.8486)" width="5" x="37.442" y="12.5"/><rect style="fill:#1A76C7" height="5.001" transform="matrix(0.7072 0.707 -0.707 0.7072 69.6691 -38.2356)" width="5" x="78.498" y="62.496"/><rect style="fill:#1A76C7" height="5" transform="matrix(0.7071 0.7071 -0.7071 0.7071 42.2645 -37.9965)" width="4.999" x="64.498" y="29.519"/><circle style="fill:#1A76C7" cx="22.156" cy="55.965" r="3.535"/><circle cx="37.416" cy="37.777" r="3.535"/><circle style="fill:#1A76C7" cx="59.997" cy="10.071" r="3.535"/><circle style="fill:#1A76C7" cx="74.916" cy="45.11" r="3.535"/></svg>