<svg version="1.2" xmlns="http://www.w3.org/2000/svg" viewBox="0 0 1600 270" width="1600" height="270">
	<title>nokia-svg</title>
	<style>
		.s0 { fill: #ffffff } 
	</style>
	<path id="Layer" fill-rule="evenodd" class="s0" d="m77 266.4h-77v-262h133.2l152.9 195.6v-195.6h77v262h-130.5l-155.6-199zm654.7-81c0 36.4-6.4 49-17.1 61-16.3 17.9-40.1 23.3-85.9 23.3h-131.5c-45.9 0-69.7-5.4-86-23.3-10.7-12-17.1-24.6-17.1-61v-101c0-36.4 6.4-48.9 17.1-61 16.3-17.9 40.1-23.3 86-23.3h131.5c45.8 0 69.6 5.4 85.9 23.3 10.7 12.1 17.1 24.6 17.1 61zm-106.2 18c17.6 0 23.8-1.1 28-4.9 3.9-3.6 5.7-8.2 5.7-23.6v-80c0-15.4-1.8-20-5.7-23.6-4.2-3.8-10.4-4.8-28-4.8h-125.1c-17.6 0-23.8 1-28 4.8-4 3.6-5.7 8.2-5.7 23.6v80c0 15.4 1.7 20 5.7 23.6 4.2 3.8 10.4 4.9 28 4.9zm137.7-199h80.5v262h-80.5zm216.5 0h106.3l-143.4 122.6 161.7 139.4h-113.7l-146.9-136.6zm139.5 0h80.5v262h-80.5zm387.4 262l-23.8-45.7h-155.8l-23.5 45.7h-88.9l142.7-262h100l142.7 262zm-151.6-102.6h100.1l-50.1-94.8z"/>
</svg>