<?xml version="1.0" ?><!DOCTYPE svg  PUBLIC '-//W3C//DTD SVG 1.0//EN'  'http://www.w3.org/TR/2001/REC-SVG-20010904/DTD/svg10.dtd'><svg enable-background="new 0 0 100 100" height="100px" id="Layer_1" version="1.0" viewBox="0 0 100 100" width="100px" xml:space="preserve" xmlns="http://www.w3.org/2000/svg" xmlns:xlink="http://www.w3.org/1999/xlink"><polygon style="stroke:#F47F31;fill:#F47F31;" points="16.667,83.333 16.667,10 10,10 10,90 90,90 90,83.333 "/><circle style="stroke:#F47F31;fill:#F47F31;" cx="80" cy="66.667" r="10"/><circle style="stroke:#F47F31;fill:#F47F31;" cx="33.333" cy="20" r="10"/><circle style="stroke:#F47F31;fill:#F47F31;" cx="60" cy="40" r="16.667"/><path style="stroke:#F47F31;fill:#F47F31;" d="M60,63.333c-12.866,0-23.333-10.469-23.333-23.333c0-0.746,0.042-1.481,0.112-2.21c-7.822,2.715-13.445,10.13-13.445,18.877  c0,11.045,8.955,20,20.001,20c8.748,0,16.16-5.625,18.879-13.444C61.484,63.291,60.745,63.333,60,63.333z"/></svg>
