<?xml version="1.0" ?><svg height="30px" version="1.1" viewBox="0 0 30 30" width="30px" xmlns="http://www.w3.org/2000/svg" xmlns:sketch="http://www.bohemiancoding.com/sketch/ns" xmlns:xlink="http://www.w3.org/1999/xlink"><title/><desc/><defs/><g fill="none" fill-rule="evenodd" id="business" stroke="none" stroke-width="2"><g fill="#F47F31" id="business_041-area_chart-report-analytic-statistic-data" transform="translate(-45.000000, -225.000000)"><g transform="translate(47.000000, 227.000000)"><path d="M0,26.5 C0,26.7761424 0.223857625,27 0.5,27 L25.5,27 C25.7761424,27 26,26.7761424 26,26.5 L26,4.5 C26,4.22385763 25.7761424,4 25.5,4 C25.2238576,4 25,4.22385763 25,4.5 L25,26 L1,26 L1,0.5 C1,0.223857625 0.776142375,0 0.5,0 C0.223857625,0 0,0.223857625 0,0.5 L0,26.5 Z" id="shape"/><path d="M6.71345145,18.7001958 L10.6815906,20.5895991 L15.4975582,14.5129399 L20.3051143,16.7709965 L25.8086811,12.7229008 L25.89334,4.80868055 C26.0638195,4.59144489 26.0259162,4.2771396 25.8086805,4.10666004 C25.5914449,3.93618049 25.2771396,3.9740838 25.10666,4.19131945 L20.3051143,10.2977295 L15.7509295,7.99674957 C15.5237955,7.88210795 15.2467904,7.95631101 15.1073783,8.16914157 L10.6815903,14.9211396 L6.71345144,13.0478513 C6.46220654,12.929243 6.16244906,13.0382086 6.04602031,13.2904709 L0.0460203077,26.2904709 C-0.0696994126,26.541197 0.0397448505,26.83826 0.290470911,26.9539797 C0.541196972,27.0696994 0.838259972,26.9602551 0.953979692,26.7095291 L6.71345145,18.7001958 Z" id="shape"/><path d="M6.72465034,19.4519007 L10.6789835,21.0246596 C10.8873894,21.107549 11.1254925,21.0415196 11.2614435,20.8631352 L15.6681519,15.0737914 L20.2283186,17.3767856 C20.4104534,17.4687147 20.6301736,17.4407635 20.7834906,17.3061605 L25.8298773,12.8757406 C26.0373931,12.6935544 26.0579268,12.3776385 25.8757406,12.1701227 C25.6935544,11.9626069 25.3776385,11.9420732 25.1701227,12.1242594 L20.3918448,16.3298341 L15.7509295,13.9967496 C15.5358695,13.8882021 15.2739838,13.9484384 15.1279608,14.1400386 L10.6900024,19.9499969 L6.74557702,18.3840318 C6.54039018,18.3024227 6.30596634,18.3650772 6.16885434,18.5381724 L0.108063323,26.1895396 C-0.0633992046,26.4060003 -0.0269210196,26.7204741 0.18953963,26.8919367 C0.406000279,27.0633992 0.720474149,27.026921 0.891936677,26.8104604 L6.72465034,19.4519007 Z" id="shape"/></g></g></g></svg>
