<?xml version="1.0" ?><svg data-name="Layer 1" height="24" id="Layer_1" viewBox="0 0 24 24" width="24" xmlns="http://www.w3.org/2000/svg"><title/><path d="M20,6.5v14a.5.5,0,0,1-1,0V6.5A1.5,1.5,0,0,0,17.5,5H7.5A1.5,1.5,0,0,0,6,6.5v14a.5.5,0,0,1-1,0V6.5A2.5,2.5,0,0,1,7.5,4h10A2.5,2.5,0,0,1,20,6.5ZM16.5,8h-8a.5.5,0,0,0,0,1h8a.5.5,0,0,0,0-1Zm0,2.5h-8a.5.5,0,0,0,0,1h8a.5.5,0,0,0,0-1Zm0,2.5h-8a.5.5,0,0,0,0,1h8a.5.5,0,0,0,0-1Zm0,2.5h-8a.5.5,0,0,0,0,1h8a.5.5,0,0,0,0-1Zm0,2.5h-8a.5.5,0,0,0,0,1h8a.5.5,0,0,0,0-1Z"/></svg>