<?xml version="1.0" ?><svg data-name="Layer 1" id="Layer_1" viewBox="0 0 24 24" xmlns="http://www.w3.org/2000/svg"><title/><path d="M4,12.91a7.9,7.9,0,0,0,1.96,5.24L3.7,20.12A10.994,10.994,0,0,1,12,1.91a10.714,10.714,0,0,1,3.98.75l-2.4,2.4A8.219,8.219,0,0,0,12,4.91,8.011,8.011,0,0,0,4,12.91ZM20.8,6.32a10.391,10.391,0,0,0-2.11-2.13l-5.92,5.92,0,0A2.951,2.951,0,0,0,12,10a3,3,0,1,0,3,3,2.951,2.951,0,0,0-.112-.768Zm1.5,2.74-2.43,2.43A7.355,7.355,0,0,1,20,12.91a7.9,7.9,0,0,1-1.96,5.24l2.26,1.97a10.964,10.964,0,0,0,2-11.06Z"/></svg>